<svg xmlns="http://www.w3.org/2000/svg" width="512" height="512" viewBox="0 0 135.467 135.467"><circle cx="67.733" cy="67.733" r="66.146"/><circle cx="67.733" cy="67.733" r="62.839" fill="#fff"/><path d="M67.732 3.54c-3.217.153-8.818.488-12.06 1.093-4.713.878-12.38 3.514-12.38 3.514s1.277.719 2.555 2.476c1.278 1.757 1.597 3.275 1.597 3.275s4.953-1.198 9.745-.16c3.98.862 8.953 3.897 10.543 4.912 1.591-1.015 6.564-4.05 10.544-4.912 4.792-1.038 9.744.16 9.744.16s.32-1.518 1.598-3.275 2.556-2.476 2.556-2.476-7.668-2.636-12.38-3.514c-3.243-.605-8.844-.94-12.062-1.094zM40.655 16.852s-9.904 4.233-13.019 5.591c-3.115 1.358-10.943 7.588-10.943 7.588s-5.99 6.87-8.706 13.339c-2.715 6.47-4.393 21.247-4.393 21.247s1.838.559 3.834 2.077c1.997 1.517 3.515 3.593 3.515 3.593s2.795-7.827 5.431-11.581c2.636-3.754 8.386-8.547 8.386-8.547s-1.198-13.019 1.119-19.888c2.316-6.869 14.777-13.419 14.777-13.419zm54.155 0s12.46 6.55 14.776 13.42c2.317 6.868 1.119 19.887 1.119 19.887s5.75 4.793 8.386 8.547c2.636 3.754 5.431 11.581 5.431 11.581s1.518-2.076 3.515-3.594 3.834-2.077 3.834-2.077-1.678-14.776-4.393-21.246c-2.716-6.47-8.706-13.339-8.706-13.339s-7.828-6.23-10.943-7.588c-3.115-1.358-13.02-5.591-13.02-5.591zM67.732 26.11 65.01 41.024 46.738 54.638l-13.59-.245 11.335 4.224 8.07 23.315-6.306 10.242 7.308-7.349H81.91l7.308 7.349-6.307-10.242 8.07-23.315 11.337-4.224-13.59.245-18.272-13.614-2.724-14.914zM11.981 79.474s1.997 13.099 2.556 15.415c.56 2.316 4.233 14.218 4.233 14.218s8.626 10.064 13.818 12.62c5.192 2.556 14.297 7.108 14.297 7.108l6.71-7.268s-6.47-4.712-8.547-7.987c-2.077-3.275-4.472-10.863-4.472-10.863s-14.537-.32-19.41-5.271c-4.872-4.953-9.185-17.972-9.185-17.972zm111.503 0s-4.313 13.02-9.185 17.972-19.41 5.271-19.41 5.271-2.396 7.588-4.472 10.863c-2.077 3.275-8.547 7.987-8.547 7.987l6.71 7.268s9.105-4.552 14.297-7.108c5.191-2.556 13.818-12.62 13.818-12.62s3.674-11.902 4.233-14.218c.56-2.316 2.556-15.415 2.556-15.415z"/><circle cx="97.402" cy="98.07" r="35.719"/><circle cx="97.402" cy="98.07" r="27.781" fill="#fff"/><path d="M97.383 74.654a3.024 3.024 0 0 0-3.024 3.024v20.411a3.025 3.025 0 0 0 3.024 3.024h20.411a3.024 3.024 0 0 0 0-6.047h-17.388V77.677a3.024 3.024 0 0 0-3.023-3.024z"/></svg>